{"accessors":[{"bufferView":0,"byteOffset":0,"componentType":5126,"count":4,"max":[-5.0,5.0,5.0],"min":[-5.0,-5.0,-5.0],"type":"VEC3"},{"bufferView":0,"byteOffset":48,"componentType":5126,"count":4,"max":[5.0,5.0,5.0],"min":[5.0,-5.0,-5.0],"type":"VEC3"},{"bufferView":0,"byteOffset":96,"componentType":5126,"count":4,"max":[5.0,-5.0,5.0],"min":[-5.0,-5.0,-5.0],"type":"VEC3"},{"bufferView":0,"byteOffset":144,"componentType":5126,"count":4,"max":[5.0,5.0,5.0],"min":[-5.0,5.0,-5.0],"type":"VEC3"},{"bufferView":0,"byteOffset":192,"componentType":5126,"count":4,"max":[5.0,5.0,-5.0],"min":[-5.0,-5.0,-5.0],"type":"VEC3"},{"bufferView":0,"byteOffset":240,"componentType":5126,"count":4,"max":[5.0,5.0,5.0],"min":[-5.0,-5.0,5.0],"type":"VEC3"},{"bufferView":0,"byteOffset":288,"componentType":5126,"count":254,"max":[4.0,3.9993783640016327,10.0],"min":[0.0,0.000621635998367065,-10.0],"type":"VEC3"},{"bufferView":0,"byteOffset":3336,"componentType":5126,"count":126,"max":[4.0,3.9993783640016327,10.0],"min":[0.0,0.000621635998367065,10.0],"type":"VEC3"},{"bufferView":0,"byteOffset":4848,"componentType":5126,"count":126,"max":[4.0,3.9993783640016327,-10.0],"min":[0.0,0.000621635998367065,-10.0],"type":"VEC3"},{"bufferView":1,"byteOffset":0,"componentType":5126,"count":4,"type":"VEC3"},{"bufferView":1,"byteOffset":48,"componentType":5126,"count":4,"type":"VEC3"},{"bufferView":1,"byteOffset":96,"componentType":5126,"count":4,"type":"VEC3"},{"bufferView":1,"byteOffset":144,"componentType":5126,"count":4,"type":"VEC3"},{"bufferView":1,"byteOffset":192,"componentType":5126,"count":4,"type":"VEC3"},{"bufferView":1,"byteOffset":240,"componentType":5126,"count":4,"type":"VEC3"},{"bufferView":1,"byteOffset":288,"componentType":5126,"count":254,"type":"VEC3"},{"bufferView":1,"byteOffset":3336,"componentType":5126,"count":126,"type":"VEC3"},{"bufferView":1,"byteOffset":4848,"componentType":5126,"count":126,"type":"VEC3"},{"bufferView":2,"byteOffset":0,"componentType":5123,"count":6,"type":"SCALAR"},{"bufferView":2,"byteOffset":12,"componentType":5123,"count":6,"type":"SCALAR"},{"bufferView":2,"byteOffset":24,"componentType":5123,"count":6,"type":"SCALAR"},{"bufferView":2,"byteOffset":36,"componentType":5123,"count":6,"type":"SCALAR"},{"bufferView":2,"byteOffset":48,"componentType":5123,"count":6,"type":"SCALAR"},{"bufferView":2,"byteOffset":60,"componentType":5123,"count":6,"type":"SCALAR"},{"bufferView":2,"byteOffset":72,"componentType":5123,"count":756,"type":"SCALAR"},{"bufferView":2,"byteOffset":1584,"componentType":5123,"count":372,"type":"SCALAR"},{"bufferView":2,"byteOffset":2328,"componentType":5123,"count":372,"type":"SCALAR"}],"asset":{"generator":"Open CASCADE Technology 7.7 [dev.opencascade.org]","version":"2.0"},"bufferViews":[{"buffer":0,"byteLength":6360,"byteOffset":0,"byteStride":12,"target":34962},{"buffer":0,"byteLength":6360,"byteOffset":6360,"byteStride":12,"target":34962},{"buffer":0,"byteLength":3072,"byteOffset":12720,"target":34963}],"buffers":[{"byteLength":15792,"uri":"out.bin"}],"materials":[{"name":"mat_0","pbrMetallicRoughness":{"baseColorFactor":[1.0,0.0,0.0,1.0]},"doubleSided":true},{"name":"mat_1","pbrMetallicRoughness":{"baseColorFactor":[0.0,1.0,0.0,1.0]},"doubleSided":true}],"meshes":[{"name":"body_part","primitives":[{"attributes":{"NORMAL":9,"POSITION":0},"indices":18,"material":0,"mode":4},{"attributes":{"NORMAL":10,"POSITION":1},"indices":19,"material":0,"mode":4},{"attributes":{"NORMAL":11,"POSITION":2},"indices":20,"material":0,"mode":4},{"attributes":{"NORMAL":12,"POSITION":3},"indices":21,"material":0,"mode":4},{"attributes":{"NORMAL":13,"POSITION":4},"indices":22,"material":0,"mode":4},{"attributes":{"NORMAL":14,"POSITION":5},"indices":23,"material":0,"mode":4}]},{"name":"pin_part","primitives":[{"attributes":{"NORMAL":15,"POSITION":6},"indices":24,"material":1,"mode":4},{"attributes":{"NORMAL":16,"POSITION":7},"indices":25,"material":1,"mode":4},{"attributes":{"NORMAL":17,"POSITION":8},"indices":26,"material":1,"mode":4}]}],"nodes":[{"children":[1,3],"rotation":[-0.7071067811865475,0.0,0.0,0.7071067811865475],"name":"43efbb38-785a-11f0-bfa2-81dd45eeb5ba"},{"children":[2],"name":"body"},{"mesh":0,"name":"body_part"},{"children":[4],"name":"pin"},{"mesh":1,"name":"pin_part"}],"scene":0,"scenes":[{"nodes":[0]}]}